<svg width="28" height="28" viewBox="0 0 28 28" fill="none" xmlns="http://www.w3.org/2000/svg">
<path d="M24.5001 14.2413C24.5001 13.5351 24.4375 12.8646 24.3302 12.212H14.228V16.2439H20.0122C19.7529 17.567 18.993 18.6845 17.8666 19.4444V22.1264H21.3174C23.3379 20.2579 24.5001 17.5044 24.5001 14.2413Z" fill="#4285F4"/>
<path d="M14.2279 24.728C17.1245 24.728 19.5472 23.7625 21.3173 22.1265L17.8665 19.4445C16.901 20.0882 15.6762 20.4815 14.2279 20.4815C11.4297 20.4815 9.06061 18.5952 8.21131 16.0473H4.6532V18.8098C6.41437 22.3142 10.0351 24.728 14.2279 24.728Z" fill="#34A853"/>
<path d="M8.21136 16.0473C7.98787 15.4036 7.87164 14.7152 7.87164 14C7.87164 13.2848 7.99681 12.5964 8.21136 11.9528V9.19031H4.65326C3.92018 10.6386 3.5 12.2657 3.5 14C3.5 15.7344 3.92018 17.3614 4.65326 18.8097L8.21136 16.0473Z" fill="#FBBC05"/>
<path d="M14.2279 7.51852C15.8103 7.51852 17.2228 8.06386 18.3403 9.12772L21.3978 6.07025C19.5472 4.33589 17.1245 3.27203 14.2279 3.27203C10.0351 3.27203 6.41437 5.68583 4.6532 9.1903L8.21131 11.9527C9.0606 9.40486 11.4297 7.51852 14.2279 7.51852Z" fill="#EA4335"/>
</svg>
