<svg width="168" height="26" viewBox="0 0 168 26" fill="none" xmlns="http://www.w3.org/2000/svg">
<path d="M0.56 1.03C1.38 1.03 2.68 0.989999 4.46 0.909999C6.26 0.829999 7.89 0.789999 9.35 0.789999C12.39 0.789999 14.56 1.4 15.86 2.62C17.16 3.82 17.81 5.5 17.81 7.66C17.81 8.96 17.36 10.13 16.46 11.17C15.56 12.21 14.38 12.99 12.92 13.51C13.78 14.97 14.58 16.34 15.32 17.62C16.08 18.9 16.63 19.85 16.97 20.47C17.31 21.09 17.62 21.65 17.9 22.15C18.18 22.63 18.38 22.96 18.5 23.14C18.64 23.32 18.77 23.47 18.89 23.59L21.05 23.89C21.13 24.19 21.13 24.56 21.05 25H15.95L11.42 16.78C10.82 15.64 10.25 14.76 9.71 14.14H9.29C8.27 14.14 7.24 14.08 6.2 13.96V23.68L8.93 23.98C9.01 24.28 9.01 24.65 8.93 25.09C7.67 25.03 6.25 25 4.67 25C3.49 25 2.06 25.02 0.38 25.06C0.26 24.7 0.26 24.34 0.38 23.98L2.87 23.62C2.95 22.86 2.99 21.69 2.99 20.11V2.44L0.56 2.14C0.48 1.84 0.48 1.47 0.56 1.03ZM6.2 6.01V12.73C6.82 12.81 7.72 12.85 8.9 12.85C9.92 12.85 10.79 12.69 11.51 12.37C12.25 12.03 12.8 11.59 13.16 11.05C13.52 10.49 13.78 9.92 13.94 9.34C14.1 8.76 14.18 8.15 14.18 7.51C14.18 5.79 13.75 4.45 12.89 3.49C12.03 2.53 10.6 2.05 8.6 2.05C7.86 2.05 7.12 2.12 6.38 2.26C6.26 3.4 6.2 4.65 6.2 6.01ZM24.2518 23.68L26.6818 23.98C26.7618 24.28 26.7618 24.65 26.6818 25.09C25.4218 25.03 24.3618 25 23.5018 25C23.0218 25 21.9418 25.02 20.2618 25.06C20.1418 24.7 20.1418 24.34 20.2618 23.98L22.2418 23.62C22.5618 23.14 22.9618 22.25 23.4418 20.95L31.1818 0.249999H32.2318L40.9318 23.68L43.3618 23.98C43.4418 24.28 43.4418 24.65 43.3618 25.09C42.1018 25.03 40.6918 25 39.1318 25C37.9718 25 36.5518 25.02 34.8718 25.06C34.7518 24.7 34.7518 24.34 34.8718 23.98L37.3618 23.62L34.7218 16.21H26.9218L24.2518 23.68ZM30.9118 4.78H30.8818C30.6418 5.72 30.2518 6.95 29.7118 8.47L27.4618 14.71H34.1818L31.9918 8.47C31.5718 7.25 31.2118 6.02 30.9118 4.78ZM67.0388 20.11V2.86L57.9788 25.9H57.1988L48.4688 3.61V20.11C48.4688 21.69 48.5088 22.86 48.5888 23.62L51.3788 23.98C51.4988 24.34 51.4988 24.7 51.3788 25.06C49.6588 25.02 48.4388 25 47.7188 25C46.5188 25 45.3088 25.03 44.0888 25.09C44.0088 24.65 44.0088 24.28 44.0888 23.98L46.8188 23.68V6.01C46.8188 4.43 46.7788 3.26 46.6988 2.5L44.2088 2.14C44.0888 1.8 44.0888 1.46 44.2088 1.12H50.8088L58.3388 20.86L66.0488 1.12C66.5088 1.14 67.2088 1.15 68.1488 1.15C68.3488 1.15 69.9188 1.12 72.8588 1.06C72.9788 1.42 72.9788 1.78 72.8588 2.14L70.3688 2.5C70.2888 3.26 70.2488 4.43 70.2488 6.01V23.68L72.6788 23.98C72.7588 24.28 72.7588 24.65 72.6788 25.09C71.4188 25.03 70.0488 25 68.5688 25C67.4888 25 66.1088 25.02 64.4288 25.06C64.3088 24.56 64.3088 24.2 64.4288 23.98L66.9188 23.62C66.9988 22.86 67.0388 21.69 67.0388 20.11Z" fill="#CD7F32"/>
<path d="M75.853 1.03C76.873 1.03 78.343 0.989999 80.263 0.909999C82.183 0.829999 83.453 0.789999 84.073 0.789999H84.883C87.503 0.789999 89.453 1.33 90.733 2.41C92.013 3.47 92.653 4.87 92.653 6.61C92.653 9.09 91.033 10.81 87.793 11.77V11.86C89.673 12.14 91.153 12.88 92.233 14.08C93.333 15.26 93.883 16.68 93.883 18.34C93.883 20.56 93.123 22.29 91.603 23.53C90.103 24.77 87.893 25.39 84.973 25.39C84.173 25.39 82.873 25.32 81.073 25.18C79.293 25.06 77.873 25 76.813 25C76.693 25 76.503 25 76.243 25C75.983 25.02 75.793 25.03 75.673 25.03C75.553 24.67 75.553 24.31 75.673 23.95L78.163 23.62C78.243 22.86 78.283 21.69 78.283 20.11V2.44L75.853 2.14C75.773 1.84 75.773 1.47 75.853 1.03ZM83.893 12.82H81.493V23.68C82.513 23.86 83.323 23.97 83.923 24.01C86.343 24.01 88.013 23.56 88.933 22.66C89.853 21.74 90.313 20.31 90.313 18.37C90.313 16.81 89.743 15.5 88.603 14.44C87.483 13.36 85.913 12.82 83.893 12.82ZM84.103 2.05C83.103 2.05 82.273 2.12 81.613 2.26C81.533 3.02 81.493 4.27 81.493 6.01V11.32H83.833C85.693 11.32 87.043 10.94 87.883 10.18C88.743 9.42 89.173 8.29 89.173 6.79C89.173 5.27 88.703 4.1 87.763 3.28C86.843 2.46 85.623 2.05 84.103 2.05ZM100.881 25L96.5909 25.09C96.4709 24.73 96.4709 24.37 96.5909 24.01L99.0809 23.68C99.1609 22.66 99.2009 21.48 99.2009 20.14V2.44L96.7709 2.14C96.6909 1.84 96.6909 1.47 96.7709 1.03C97.8709 1.11 99.2409 1.15 100.881 1.15C102.341 1.15 103.721 1.12 105.021 1.06C105.141 1.42 105.141 1.78 105.021 2.14L102.531 2.5C102.451 3.26 102.411 4.43 102.411 6.01V23.47H112.311L113.721 18.04C114.021 17.96 114.391 17.96 114.831 18.04L114.801 25H100.881ZM129.132 0.519999C131.092 0.519999 132.852 0.869999 134.412 1.57C135.972 2.27 137.232 3.21 138.192 4.39C139.152 5.55 139.882 6.85 140.382 8.29C140.902 9.71 141.162 11.2 141.162 12.76C141.162 16.36 140.032 19.4 137.772 21.88C135.512 24.36 132.632 25.6 129.132 25.6C127.192 25.6 125.442 25.25 123.882 24.55C122.322 23.85 121.062 22.92 120.102 21.76C119.142 20.58 118.402 19.28 117.882 17.86C117.382 16.44 117.132 14.96 117.132 13.42C117.132 11.12 117.632 8.99 118.632 7.03C119.652 5.07 121.082 3.5 122.922 2.32C124.782 1.12 126.852 0.519999 129.132 0.519999ZM129.102 23.95C130.982 23.95 132.572 23.41 133.872 22.33C135.192 21.23 136.132 19.85 136.692 18.19C137.272 16.53 137.562 14.68 137.562 12.64C137.562 10.7 137.272 8.97 136.692 7.45C136.132 5.91 135.202 4.65 133.902 3.67C132.602 2.67 131.002 2.17 129.102 2.17C126.362 2.17 124.282 3.17 122.862 5.17C121.442 7.17 120.732 9.67 120.732 12.67C120.732 14.73 121.012 16.59 121.572 18.25C122.132 19.89 123.062 21.25 124.362 22.33C125.662 23.41 127.242 23.95 129.102 23.95ZM163.43 25.54L162.65 23.08C160.33 24.76 158.09 25.6 155.93 25.6C153.97 25.6 152.26 25.25 150.8 24.55C149.34 23.83 148.13 22.89 147.17 21.73C146.21 20.55 145.49 19.22 145.01 17.74C144.55 16.24 144.32 14.71 144.32 13.15C144.32 11.57 144.59 10.03 145.13 8.53C145.69 7.01 146.5 5.66 147.56 4.48C148.64 3.3 149.95 2.35 151.49 1.63C153.03 0.889999 154.79 0.519999 156.77 0.519999C159.53 0.519999 162.07 1.12 164.39 2.32V8.08C164.03 8.14 163.71 8.17 163.43 8.17C163.13 8.17 162.88 8.14 162.68 8.08L161.72 3.07C160.44 2.27 158.67 1.87 156.41 1.87C155.15 1.87 154.01 2.16 152.99 2.74C151.97 3.3 151.09 4.07 150.35 5.05C149.61 6.01 149.04 7.15 148.64 8.47C148.24 9.77 148.04 11.16 148.04 12.64C148.04 14.22 148.22 15.68 148.58 17.02C148.96 18.36 149.49 19.52 150.17 20.5C150.85 21.48 151.67 22.25 152.63 22.81C153.61 23.35 154.7 23.62 155.9 23.62C157.84 23.62 159.75 23.09 161.63 22.03V15.64L159.2 15.34C159.16 15.24 159.14 15.08 159.14 14.86C159.14 14.76 159.14 14.66 159.14 14.56C159.14 14.46 159.16 14.35 159.2 14.23C159.76 14.27 160.37 14.3 161.03 14.32C161.71 14.34 162.47 14.35 163.31 14.35C164.77 14.35 166.15 14.32 167.45 14.26C167.51 14.44 167.54 14.62 167.54 14.8C167.54 14.98 167.51 15.16 167.45 15.34L164.96 15.7C164.92 16.08 164.89 16.56 164.87 17.14C164.85 17.72 164.84 18.41 164.84 19.21V22.24L164.54 25.54C164.46 25.58 164.38 25.6 164.3 25.6C164.22 25.6 164.13 25.6 164.03 25.6C163.93 25.6 163.83 25.6 163.73 25.6C163.63 25.6 163.53 25.58 163.43 25.54Z" fill="black"/>
</svg>
